<svg id="Layer_1" data-name="Layer 1" xmlns="http://www.w3.org/2000/svg" width="91.9" height="91.8" viewBox="0 0 91.9 91.8"><defs><style>.cls-1{fill:#d1edf8;}.cls-2{fill:#04dbec;}</style></defs><circle class="cls-1" cx="45.95" cy="45.9" r="43.83"/><path class="cls-2" d="M172.25,435.15A41.5,41.5,0,0,1,146,403.74h9.62v9h1.47l14-.19v-24.8l-16.87-17a43.15,43.15,0,0,1,3.86-4.24l18,18v26h22.76A3,3,0,0,0,201.5,412a3,3,0,1,0,0-6,3,3,0,0,0-2.58,1.55H179.09V383.22l-4.56-4.56,6.72-6.72,4.38,4.38a3.28,3.28,0,1,0,2.07-2.07l-5-5V355.17a41.52,41.52,0,0,1,7.4-.09,2.25,2.25,0,1,0,.46-4.48,45.92,45.92,0,0,0-19.8,88.81,2.25,2.25,0,0,0,2.89-1.46h0A2.26,2.26,0,0,0,172.25,435.15Zm7.53-79.59v13.7l-7.32,7.33-12.1-12.1A41.71,41.71,0,0,1,179.78,355.56Zm-32.51,28.31a41.21,41.21,0,0,1,5.27-10.8l7.59,7.66-6.57,6.57a3,3,0,1,0,1.59,4.7,2.94,2.94,0,0,0,.45-2.6l6.59-6.59,6.05,6.11V409.6l-9.66.17v-9h-13A41.2,41.2,0,0,1,147.27,383.87Z" transform="translate(-140.84 -350.44)"/><path class="cls-2" d="M203.34,353.51h0l-.08,0a3.35,3.35,0,1,0-1.44,4.28,40.45,40.45,0,0,1,5.06,2.4v9.13H196.15v11.64a3,3,0,0,0-1.54,2.58,3,3,0,0,0,6,0,3,3,0,0,0-1.55-2.59v-8.7h7.75v15.44l-8.74,8.51H187.3a3,3,0,0,0-2.54-1.48,3,3,0,0,0,0,6,3,3,0,0,0,2.63-1.62H199.3l4.17-4.06,5.44,5.45V417l7.87,7.87a41.72,41.72,0,0,1-17.45,10.88l-9.45-9.45H179.09v-7.75h16.72l4.67,4.67a3,3,0,0,0,5.24,2.75,3,3,0,0,0-.6-4.23,3,3,0,0,0-2.47-.49l-5.2-5.2-.55-.43H176.16v4.14h-8a2.94,2.94,0,0,0-.81-.95,3,3,0,1,0,.59,4.23,2.81,2.81,0,0,0,.17-.35h8v6.55h12.51l7.4,7.4a41.1,41.1,0,0,1-13.31.89,2.25,2.25,0,1,0-.54,4.47,45.9,45.9,0,0,0,21.12-88.5Zm23,55.3a41,41,0,0,1-7.58,13.87l-6.88-6.88v-6.72h3.88a3,3,0,0,0,2.58,1.55,3,3,0,1,0,0-6,3,3,0,0,0-2.58,1.55h-3.88v-6.9L205.57,393l4.2-4.1v-27a41.5,41.5,0,0,1,12.83,13.72H216v16.45a3,3,0,0,0-1.55,2.58,3,3,0,1,0,6,0,3,3,0,0,0-1.55-2.58V378.57h5.23A41.12,41.12,0,0,1,226.3,408.81Z" transform="translate(-140.84 -350.44)"/></svg>